<?xml version="1.0" encoding="UTF-8" standalone="no"?>
<!DOCTYPE svg PUBLIC "-//W3C//DTD SVG 1.1//EN"
 "http://www.w3.org/Graphics/SVG/1.1/DTD/svg11.dtd">
<!-- Generated by graphviz version 2.40.1 (20161225.0304)
 -->
<!-- Title: %3 Pages: 1 -->
<svg width="772pt" height="196pt"
 viewBox="0.00 0.00 772.00 196.00" xmlns="http://www.w3.org/2000/svg" xmlns:xlink="http://www.w3.org/1999/xlink">
<g id="graph0" class="graph" transform="scale(1 1) rotate(0) translate(4 192)">
<title>%3</title>
<polygon fill="#ffffff" stroke="transparent" points="-4,4 -4,-192 768,-192 768,4 -4,4"/>
<g id="clust1" class="cluster">
<title>cluster_8</title>
<polygon fill="none" stroke="#000000" points="8,-8 8,-180 756,-180 756,-8 8,-8"/>
</g>
<g id="clust2" class="cluster">
<title>cluster_group_1</title>
<polygon fill="none" stroke="#000000" points="33,-33 33,-155 731,-155 731,-33 33,-33"/>
</g>
<!-- 11 -->
<g id="11" class="node">
<title>11</title>
<polygon fill="none" stroke="#000000" points="706,-130 598,-130 598,-58 706,-58 706,-130"/>
<text text-anchor="middle" x="652" y="-93" font-family="Times,serif" font-size="5.00" fill="#000000">11: ADLS &#45; Silver</text>
</g>
<!-- 12 -->
<g id="12" class="node">
<title>12</title>
<polygon fill="none" stroke="#000000" points="526,-130 418,-130 418,-58 526,-58 526,-130"/>
<text text-anchor="middle" x="472" y="-93" font-family="Times,serif" font-size="5.00" fill="#000000">12: ADLS &#45; Gold</text>
</g>
<!-- 9 -->
<g id="9" class="node">
<title>9</title>
<polygon fill="none" stroke="#000000" points="346,-130 238,-130 238,-58 346,-58 346,-130"/>
<text text-anchor="middle" x="292" y="-93" font-family="Times,serif" font-size="5.00" fill="#000000">9: ADLS &#45; Landing</text>
</g>
<!-- 10 -->
<g id="10" class="node">
<title>10</title>
<polygon fill="none" stroke="#000000" points="166,-130 58,-130 58,-58 166,-58 166,-130"/>
<text text-anchor="middle" x="112" y="-93" font-family="Times,serif" font-size="5.00" fill="#000000">10: ADLS &#45; Bronze</text>
</g>
</g>
</svg>
