<?xml version="1.0" encoding="UTF-8" standalone="no"?>
<!DOCTYPE svg PUBLIC "-//W3C//DTD SVG 1.1//EN"
 "http://www.w3.org/Graphics/SVG/1.1/DTD/svg11.dtd">
<!-- Generated by graphviz version 2.40.1 (20161225.0304)
 -->
<!-- Title: %3 Pages: 1 -->
<svg width="667pt" height="425pt"
 viewBox="0.00 0.00 667.00 425.00" xmlns="http://www.w3.org/2000/svg" xmlns:xlink="http://www.w3.org/1999/xlink">
<g id="graph0" class="graph" transform="scale(1 1) rotate(0) translate(4 421)">
<title>%3</title>
<polygon fill="#ffffff" stroke="transparent" points="-4,4 -4,-421 663,-421 663,4 -4,4"/>
<g id="clust1" class="cluster">
<title>cluster_7</title>
<polygon fill="none" stroke="#000000" points="8,-8 8,-274 346,-274 346,-8 8,-8"/>
</g>
<!-- 16 -->
<g id="16" class="node">
<title>16</title>
<polygon fill="none" stroke="#000000" points="220,-105 112,-105 112,-33 220,-33 220,-105"/>
<text text-anchor="middle" x="166" y="-68" font-family="Times,serif" font-size="5.00" fill="#000000">16: ADS Go Fast Metadata DB</text>
</g>
<!-- 8 -->
<g id="8" class="node">
<title>8</title>
<polygon fill="none" stroke="#000000" points="141,-249 33,-249 33,-177 141,-177 141,-249"/>
<text text-anchor="middle" x="87" y="-212" font-family="Times,serif" font-size="5.00" fill="#000000">8: Web Application</text>
</g>
<!-- 8&#45;&gt;16 -->
<g id="32" class="edge">
<title>8&#45;&gt;16</title>
<path fill="none" stroke="#000000" d="M106.935,-176.6627C117.3599,-157.6604 130.2173,-134.2242 141.2715,-114.0748"/>
<polygon fill="#000000" stroke="#000000" points="144.467,-115.5267 146.2083,-105.076 138.3299,-112.1598 144.467,-115.5267"/>
</g>
<!-- 9 -->
<g id="9" class="node">
<title>9</title>
<polygon fill="none" stroke="#000000" points="321,-249 213,-249 213,-177 321,-177 321,-249"/>
<text text-anchor="middle" x="267" y="-212" font-family="Times,serif" font-size="5.00" fill="#000000">9: API Application</text>
</g>
<!-- 9&#45;&gt;16 -->
<g id="43" class="edge">
<title>9&#45;&gt;16</title>
<path fill="none" stroke="#000000" d="M241.5134,-176.6627C228.0653,-157.4892 211.4511,-133.8015 197.2336,-113.531"/>
<polygon fill="#000000" stroke="#000000" points="199.911,-111.2532 191.3033,-105.076 194.1801,-115.2728 199.911,-111.2532"/>
</g>
<!-- 4 -->
<g id="4" class="node">
<title>4</title>
<polygon fill="none" stroke="#000000" points="479,-105 371,-105 371,-33 479,-33 479,-105"/>
<text text-anchor="middle" x="425" y="-68" font-family="Times,serif" font-size="5.00" fill="#000000">4: Mainframe Banking System</text>
</g>
<!-- 9&#45;&gt;4 -->
<g id="45" class="edge">
<title>9&#45;&gt;4</title>
<path fill="none" stroke="#000000" d="M306.8701,-176.6627C328.4712,-156.9756 355.2942,-132.5293 377.9186,-111.9096"/>
<polygon fill="#000000" stroke="#000000" points="380.3833,-114.3989 385.4166,-105.076 375.6681,-109.2252 380.3833,-114.3989"/>
</g>
<!-- 5 -->
<g id="5" class="node">
<title>5</title>
<polygon fill="none" stroke="#000000" points="659,-105 551,-105 551,-33 659,-33 659,-105"/>
<text text-anchor="middle" x="605" y="-68" font-family="Times,serif" font-size="5.00" fill="#000000">5: E&#45;mail System</text>
</g>
<!-- 9&#45;&gt;5 -->
<g id="48" class="edge">
<title>9&#45;&gt;5</title>
<path fill="none" stroke="#000000" d="M321.3055,-189.8639C381.3002,-164.3041 477.8077,-123.1884 541.3186,-96.1306"/>
<polygon fill="#000000" stroke="#000000" points="543.0012,-99.2182 550.8292,-92.0787 540.2575,-92.7782 543.0012,-99.2182"/>
</g>
<!-- 1 -->
<g id="1" class="node">
<title>1</title>
<polygon fill="none" stroke="#000000" points="135,-417 39,-417 39,-321 135,-321 135,-417"/>
<text text-anchor="middle" x="87" y="-368" font-family="Times,serif" font-size="5.00" fill="#000000">1: Data Engineer</text>
</g>
<!-- 1&#45;&gt;8 -->
<g id="31" class="edge">
<title>1&#45;&gt;8</title>
<path fill="none" stroke="#000000" d="M87,-320.9219C87,-301.3434 87,-278.8002 87,-259.3971"/>
<polygon fill="#000000" stroke="#000000" points="90.5001,-259.2752 87,-249.2753 83.5001,-259.2753 90.5001,-259.2752"/>
</g>
</g>
</svg>
