<?xml version="1.0" encoding="UTF-8" standalone="no"?>
<!DOCTYPE svg PUBLIC "-//W3C//DTD SVG 1.1//EN"
 "http://www.w3.org/Graphics/SVG/1.1/DTD/svg11.dtd">
<!-- Generated by graphviz version 2.40.1 (20161225.0304)
 -->
<!-- Title: %3 Pages: 1 -->
<svg width="3024pt" height="508pt"
 viewBox="0.00 0.00 3024.00 508.00" xmlns="http://www.w3.org/2000/svg" xmlns:xlink="http://www.w3.org/1999/xlink">
<g id="graph0" class="graph" transform="scale(1 1) rotate(0) translate(4 504)">
<title>%3</title>
<polygon fill="#ffffff" stroke="transparent" points="-4,4 -4,-504 3020,-504 3020,4 -4,4"/>
<g id="clust1" class="cluster">
<title>cluster_enterprise</title>
<polygon fill="none" stroke="#000000" points="8,-8 8,-492 3008,-492 3008,-8 8,-8"/>
</g>
<g id="clust2" class="cluster">
<title>cluster_group_1</title>
<polygon fill="none" stroke="#000000" points="302,-33 302,-311 1000,-311 1000,-33 302,-33"/>
</g>
<g id="clust3" class="cluster">
<title>cluster_group_2</title>
<polygon fill="none" stroke="#000000" points="2645,-345 2645,-467 2983,-467 2983,-345 2645,-345"/>
</g>
<g id="clust4" class="cluster">
<title>cluster_group_3</title>
<polygon fill="none" stroke="#000000" points="1922,-345 1922,-467 2620,-467 2620,-345 1922,-345"/>
</g>
<g id="clust5" class="cluster">
<title>cluster_group_4</title>
<polygon fill="none" stroke="#000000" points="1379,-345 1379,-467 1897,-467 1897,-345 1379,-345"/>
</g>
<g id="clust6" class="cluster">
<title>cluster_group_5</title>
<polygon fill="none" stroke="#000000" points="1025,-189 1025,-311 1183,-311 1183,-189 1025,-189"/>
</g>
<g id="clust7" class="cluster">
<title>cluster_group_6</title>
<polygon fill="none" stroke="#000000" points="1016,-345 1016,-467 1354,-467 1354,-345 1016,-345"/>
</g>
<!-- 23 -->
<g id="23" class="node">
<title>23</title>
<polygon fill="none" stroke="#000000" points="435,-286 327,-286 327,-214 435,-214 435,-286"/>
<text text-anchor="middle" x="381" y="-249" font-family="Times,serif" font-size="5.00" fill="#000000">23: Reporting &amp; Analytics Services</text>
</g>
<!-- 2 -->
<g id="2" class="node">
<title>2</title>
<polygon fill="none" stroke="#000000" points="277,-142 181,-142 181,-46 277,-46 277,-142"/>
<text text-anchor="middle" x="229" y="-93" font-family="Times,serif" font-size="5.00" fill="#000000">2: Data / Report Consumer</text>
</g>
<!-- 23&#45;&gt;2 -->
<g id="47" class="edge">
<title>23&#45;&gt;2</title>
<path fill="none" stroke="#000000" d="M345.7461,-213.8184C327.0722,-194.653 303.7386,-170.7054 282.8509,-149.268"/>
<polygon fill="#000000" stroke="#000000" points="285.3567,-146.8245 275.8712,-142.1047 280.3431,-151.7095 285.3567,-146.8245"/>
</g>
<!-- 25 -->
<g id="25" class="node">
<title>25</title>
<polygon fill="none" stroke="#000000" points="795,-286 687,-286 687,-214 795,-214 795,-286"/>
<text text-anchor="middle" x="741" y="-249" font-family="Times,serif" font-size="5.00" fill="#000000">25: DataLake</text>
</g>
<!-- 10 -->
<g id="10" class="node">
<title>10</title>
<polygon fill="none" stroke="#000000" points="615,-286 507,-286 507,-214 615,-214 615,-286"/>
<text text-anchor="middle" x="561" y="-249" font-family="Times,serif" font-size="5.00" fill="#000000">10: ATM</text>
</g>
<!-- 11 -->
<g id="11" class="node">
<title>11</title>
<polygon fill="none" stroke="#000000" points="975,-286 867,-286 867,-214 975,-214 975,-286"/>
<text text-anchor="middle" x="921" y="-249" font-family="Times,serif" font-size="5.00" fill="#000000">11: ADS Go Fast Core</text>
</g>
<!-- 8 -->
<g id="8" class="node">
<title>8</title>
<polygon fill="none" stroke="#000000" points="795,-130 687,-130 687,-58 795,-58 795,-130"/>
<text text-anchor="middle" x="741" y="-93" font-family="Times,serif" font-size="5.00" fill="#000000">8: Mainframe Banking System</text>
</g>
<!-- 11&#45;&gt;8 -->
<g id="63" class="edge">
<title>11&#45;&gt;8</title>
<path fill="none" stroke="#000000" d="M879.252,-213.8184C852.7665,-190.8643 818.3656,-161.0502 790.5056,-136.9048"/>
<polygon fill="#000000" stroke="#000000" points="792.6822,-134.1597 782.833,-130.2553 788.0977,-139.4496 792.6822,-134.1597"/>
</g>
<!-- 9 -->
<g id="9" class="node">
<title>9</title>
<polygon fill="none" stroke="#000000" points="615,-130 507,-130 507,-58 615,-58 615,-130"/>
<text text-anchor="middle" x="561" y="-93" font-family="Times,serif" font-size="5.00" fill="#000000">9: E&#45;mail System</text>
</g>
<!-- 11&#45;&gt;9 -->
<g id="66" class="edge">
<title>11&#45;&gt;9</title>
<path fill="none" stroke="#000000" d="M867.8661,-213.987C848.3807,-200.7803 831,-189 831,-189 831,-189 651,-142 651,-142 651,-142 639.2825,-135.7507 624.3034,-127.7618"/>
<polygon fill="#000000" stroke="#000000" points="625.6416,-124.5089 615.171,-122.8912 622.3475,-130.6854 625.6416,-124.5089"/>
</g>
<!-- 21 -->
<g id="21" class="node">
<title>21</title>
<polygon fill="none" stroke="#000000" points="975,-130 867,-130 867,-58 975,-58 975,-130"/>
<text text-anchor="middle" x="921" y="-93" font-family="Times,serif" font-size="5.00" fill="#000000">21: Task Execution Engines</text>
</g>
<!-- 11&#45;&gt;21 -->
<g id="54" class="edge">
<title>11&#45;&gt;21</title>
<path fill="none" stroke="#000000" d="M921,-213.8184C921,-191.9433 921,-163.8381 921,-140.3462"/>
<polygon fill="#000000" stroke="#000000" points="924.5001,-140.2553 921,-130.2553 917.5001,-140.2553 924.5001,-140.2553"/>
</g>
<!-- 30 -->
<g id="30" class="node">
<title>30</title>
<polygon fill="none" stroke="#000000" points="2958,-442 2850,-442 2850,-370 2958,-370 2958,-442"/>
<text text-anchor="middle" x="2904" y="-405" font-family="Times,serif" font-size="5.00" fill="#000000">30: PowerBi</text>
</g>
<!-- 31 -->
<g id="31" class="node">
<title>31</title>
<polygon fill="none" stroke="#000000" points="2778,-442 2670,-442 2670,-370 2778,-370 2778,-442"/>
<text text-anchor="middle" x="2724" y="-405" font-family="Times,serif" font-size="5.00" fill="#000000">31: Power Apps</text>
</g>
<!-- 32 -->
<g id="32" class="node">
<title>32</title>
<polygon fill="none" stroke="#000000" points="2595,-442 2487,-442 2487,-370 2595,-370 2595,-442"/>
<text text-anchor="middle" x="2541" y="-405" font-family="Times,serif" font-size="5.00" fill="#000000">32: Documents</text>
</g>
<!-- 33 -->
<g id="33" class="node">
<title>33</title>
<polygon fill="none" stroke="#000000" points="2415,-442 2307,-442 2307,-370 2415,-370 2415,-442"/>
<text text-anchor="middle" x="2361" y="-405" font-family="Times,serif" font-size="5.00" fill="#000000">33: Email</text>
</g>
<!-- 34 -->
<g id="34" class="node">
<title>34</title>
<polygon fill="none" stroke="#000000" points="2235,-442 2127,-442 2127,-370 2235,-370 2235,-442"/>
<text text-anchor="middle" x="2181" y="-405" font-family="Times,serif" font-size="5.00" fill="#000000">34: Chat / Posts</text>
</g>
<!-- 35 -->
<g id="35" class="node">
<title>35</title>
<polygon fill="none" stroke="#000000" points="2055,-442 1947,-442 1947,-370 2055,-370 2055,-442"/>
<text text-anchor="middle" x="2001" y="-405" font-family="Times,serif" font-size="5.00" fill="#000000">35: Wikis &amp; Webpages</text>
</g>
<!-- 36 -->
<g id="36" class="node">
<title>36</title>
<polygon fill="none" stroke="#000000" points="1872,-442 1764,-442 1764,-370 1872,-370 1872,-442"/>
<text text-anchor="middle" x="1818" y="-405" font-family="Times,serif" font-size="5.00" fill="#000000">36: Dynamics C &amp; E</text>
</g>
<!-- 37 -->
<g id="37" class="node">
<title>37</title>
<polygon fill="none" stroke="#000000" points="1692,-442 1584,-442 1584,-370 1692,-370 1692,-442"/>
<text text-anchor="middle" x="1638" y="-405" font-family="Times,serif" font-size="5.00" fill="#000000">37: Dynamics F &amp; O</text>
</g>
<!-- 38 -->
<g id="38" class="node">
<title>38</title>
<polygon fill="none" stroke="#000000" points="1512,-442 1404,-442 1404,-370 1512,-370 1512,-442"/>
<text text-anchor="middle" x="1458" y="-405" font-family="Times,serif" font-size="5.00" fill="#000000">38: Dataverse</text>
</g>
<!-- 39 -->
<g id="39" class="node">
<title>39</title>
<polygon fill="none" stroke="#000000" points="1158,-286 1050,-286 1050,-214 1158,-214 1158,-286"/>
<text text-anchor="middle" x="1104" y="-249" font-family="Times,serif" font-size="5.00" fill="#000000">39: On Premise Source Systems</text>
</g>
<!-- 39&#45;&gt;21 -->
<g id="53" class="edge">
<title>39&#45;&gt;21</title>
<path fill="none" stroke="#000000" d="M1061.5562,-213.8184C1034.6292,-190.8643 999.6551,-161.0502 971.3306,-136.9048"/>
<polygon fill="#000000" stroke="#000000" points="973.411,-134.0791 963.5303,-130.2553 968.8699,-139.4062 973.411,-134.0791"/>
</g>
<!-- 41 -->
<g id="41" class="node">
<title>41</title>
<polygon fill="none" stroke="#000000" points="1329,-442 1221,-442 1221,-370 1329,-370 1329,-442"/>
<text text-anchor="middle" x="1275" y="-405" font-family="Times,serif" font-size="5.00" fill="#000000">41: AWS</text>
</g>
<!-- 43 -->
<g id="43" class="node">
<title>43</title>
<polygon fill="none" stroke="#000000" points="1149,-442 1041,-442 1041,-370 1149,-370 1149,-442"/>
<text text-anchor="middle" x="1095" y="-405" font-family="Times,serif" font-size="5.00" fill="#000000">43: Google</text>
</g>
<!-- 1 -->
<g id="1" class="node">
<title>1</title>
<polygon fill="none" stroke="#000000" points="969,-454 873,-454 873,-358 969,-358 969,-454"/>
<text text-anchor="middle" x="921" y="-405" font-family="Times,serif" font-size="5.00" fill="#000000">1: Data Engineer</text>
</g>
<!-- 1&#45;&gt;11 -->
<g id="45" class="edge">
<title>1&#45;&gt;11</title>
<path fill="none" stroke="#000000" d="M921,-357.9219C921,-338.3434 921,-315.8002 921,-296.3971"/>
<polygon fill="#000000" stroke="#000000" points="924.5001,-296.2752 921,-286.2753 917.5001,-296.2753 924.5001,-296.2752"/>
</g>
<!-- 3 -->
<g id="3" class="node">
<title>3</title>
<polygon fill="none" stroke="#000000" points="801,-454 705,-454 705,-358 801,-358 801,-454"/>
<text text-anchor="middle" x="753" y="-405" font-family="Times,serif" font-size="5.00" fill="#000000">3: Information Worker</text>
</g>
<!-- 4 -->
<g id="4" class="node">
<title>4</title>
<polygon fill="none" stroke="#000000" points="633,-454 537,-454 537,-358 633,-358 633,-454"/>
<text text-anchor="middle" x="585" y="-405" font-family="Times,serif" font-size="5.00" fill="#000000">4: Data Stewards</text>
</g>
<!-- 5 -->
<g id="5" class="node">
<title>5</title>
<polygon fill="none" stroke="#000000" points="465,-454 369,-454 369,-358 465,-358 465,-454"/>
<text text-anchor="middle" x="417" y="-405" font-family="Times,serif" font-size="5.00" fill="#000000">5: Security Admin</text>
</g>
<!-- 6 -->
<g id="6" class="node">
<title>6</title>
<polygon fill="none" stroke="#000000" points="297,-454 201,-454 201,-358 297,-358 297,-454"/>
<text text-anchor="middle" x="249" y="-405" font-family="Times,serif" font-size="5.00" fill="#000000">6: Chief Information Security Officer</text>
</g>
<!-- 7 -->
<g id="7" class="node">
<title>7</title>
<polygon fill="none" stroke="#000000" points="129,-454 33,-454 33,-358 129,-358 129,-454"/>
<text text-anchor="middle" x="81" y="-405" font-family="Times,serif" font-size="5.00" fill="#000000">7: Chief Data Officer</text>
</g>
</g>
</svg>
