<?xml version="1.0" encoding="UTF-8" standalone="no"?>
<!DOCTYPE svg PUBLIC "-//W3C//DTD SVG 1.1//EN"
 "http://www.w3.org/Graphics/SVG/1.1/DTD/svg11.dtd">
<!-- Generated by graphviz version 2.40.1 (20161225.0304)
 -->
<!-- Title: %3 Pages: 1 -->
<svg width="592pt" height="483pt"
 viewBox="0.00 0.00 592.00 483.00" xmlns="http://www.w3.org/2000/svg" xmlns:xlink="http://www.w3.org/1999/xlink">
<g id="graph0" class="graph" transform="scale(1 1) rotate(0) translate(4 479)">
<title>%3</title>
<polygon fill="#ffffff" stroke="transparent" points="-4,4 -4,-479 588,-479 588,4 -4,4"/>
<g id="clust1" class="cluster">
<title>cluster_enterprise</title>
<polygon fill="none" stroke="#000000" points="8,-8 8,-467 576,-467 576,-8 8,-8"/>
</g>
<g id="clust2" class="cluster">
<title>cluster_group_1</title>
<polygon fill="none" stroke="#000000" points="33,-33 33,-299 551,-299 551,-33 33,-33"/>
</g>
<!-- 11 -->
<g id="11" class="node">
<title>11</title>
<polygon fill="none" stroke="#000000" points="346,-274 238,-274 238,-202 346,-202 346,-274"/>
<text text-anchor="middle" x="292" y="-237" font-family="Times,serif" font-size="5.00" fill="#000000">11: ADS Go Fast Core</text>
</g>
<!-- 8 -->
<g id="8" class="node">
<title>8</title>
<polygon fill="none" stroke="#000000" points="166,-130 58,-130 58,-58 166,-58 166,-130"/>
<text text-anchor="middle" x="112" y="-93" font-family="Times,serif" font-size="5.00" fill="#000000">8: Mainframe Banking System</text>
</g>
<!-- 11&#45;&gt;8 -->
<g id="63" class="edge">
<title>11&#45;&gt;8</title>
<path fill="none" stroke="#000000" d="M246.5784,-201.6627C221.7555,-181.8044 190.8797,-157.1038 164.9658,-136.3726"/>
<polygon fill="#000000" stroke="#000000" points="167.0901,-133.5899 157.095,-130.076 162.7172,-139.056 167.0901,-133.5899"/>
</g>
<!-- 9 -->
<g id="9" class="node">
<title>9</title>
<polygon fill="none" stroke="#000000" points="346,-130 238,-130 238,-58 346,-58 346,-130"/>
<text text-anchor="middle" x="292" y="-93" font-family="Times,serif" font-size="5.00" fill="#000000">9: E&#45;mail System</text>
</g>
<!-- 11&#45;&gt;9 -->
<g id="66" class="edge">
<title>11&#45;&gt;9</title>
<path fill="none" stroke="#000000" d="M292,-201.6627C292,-183.0027 292,-160.0673 292,-140.1671"/>
<polygon fill="#000000" stroke="#000000" points="295.5001,-140.0759 292,-130.076 288.5001,-140.076 295.5001,-140.0759"/>
</g>
<!-- 21 -->
<g id="21" class="node">
<title>21</title>
<polygon fill="none" stroke="#000000" points="526,-130 418,-130 418,-58 526,-58 526,-130"/>
<text text-anchor="middle" x="472" y="-93" font-family="Times,serif" font-size="5.00" fill="#000000">21: Task Execution Engines</text>
</g>
<!-- 11&#45;&gt;21 -->
<g id="54" class="edge">
<title>11&#45;&gt;21</title>
<path fill="none" stroke="#000000" d="M337.4216,-201.6627C362.2445,-181.8044 393.1203,-157.1038 419.0342,-136.3726"/>
<polygon fill="#000000" stroke="#000000" points="421.2828,-139.056 426.905,-130.076 416.9099,-133.5899 421.2828,-139.056"/>
</g>
<!-- 1 -->
<g id="1" class="node">
<title>1</title>
<polygon fill="none" stroke="#000000" points="340,-442 244,-442 244,-346 340,-346 340,-442"/>
<text text-anchor="middle" x="292" y="-393" font-family="Times,serif" font-size="5.00" fill="#000000">1: Data Engineer</text>
</g>
<!-- 1&#45;&gt;11 -->
<g id="45" class="edge">
<title>1&#45;&gt;11</title>
<path fill="none" stroke="#000000" d="M292,-345.9219C292,-326.3434 292,-303.8002 292,-284.3971"/>
<polygon fill="#000000" stroke="#000000" points="295.5001,-284.2752 292,-274.2753 288.5001,-284.2753 295.5001,-284.2752"/>
</g>
</g>
</svg>
